<?xml version="1.0" encoding="UTF-8" standalone="no"?>
<!-- Created with Inkscape (http://www.inkscape.org/) -->

<svg
   width="200"
   height="200"
   viewBox="0 0 52.916665 52.916668"
   version="1.1"
   id="svg5"
   xmlns="http://www.w3.org/2000/svg"
   xmlns:svg="http://www.w3.org/2000/svg">
  <defs
     id="defs2" />
  <g
     id="layer1">
    <path
       style="fill:#4d4d4d;stroke-width:0.239257px"
       d="M 1.3129702,52.444845 C 1.0829428,52.179174 1.058149,51.767958 1.0008937,51.29847 0.97265323,51.021209 0.85945171,50.223312 0.98274946,49.456604 1.145918,48.330908 1.515118,47.118944 2.0643192,45.735492 c 0,0 6e-7,-2e-6 6e-7,-2e-6 0.5950083,-1.518673 1.43591,-3.309046 2.5667733,-5.201556 1.2492032,-2.08042 2.5906379,-3.916855 4.1387426,-6.036339 4e-7,-10e-7 9e-7,-10e-7 1.4e-6,-2e-6 2.2055569,-3.026531 5.1274349,-7.063008 8.3610479,-10.708445 0.924156,-1.038312 1.884792,-2.059279 2.880434,-3.065926 1.603291,-1.621015 3.228755,-3.135502 4.827609,-4.543866 2.421516,-2.135458 4.813062,-4.061206 7.138595,-5.775466 2.458864,-1.813141 4.799303,-3.355164 7.019239,-4.6408393 1.32941,-0.7700242 2.590696,-1.4332637 3.796567,-1.9956684 0,0 2e-6,-8e-7 2e-6,-8e-7 1.59306,-0.7421562 3.04945,-1.2837777 4.267898,-1.6450591 2.660544,-0.7892845 4.365104,-0.7914506 4.772844,-0.059672 0.412104,0.7396114 -0.504185,2.1415888 -2.343602,4.0742565 -0.874961,0.9195914 -1.868434,1.8738709 -3.056851,3.0199078 0,10e-8 -10e-7,1.2e-6 -10e-7,1.2e-6 1.235127,-1.1899691 -4.089666,3.9370371 -2.854539,2.7470681 -2.347809,2.254632 -3.009663,2.89002 -5.712527,5.496798 -2.041264,1.969345 -4.001767,3.866024 -6.266765,6.07587 -1.442678,1.409236 -2.940849,2.877483 -4.404485,4.355725 -0.914867,0.923997 -1.79798,1.833353 -2.655954,2.741111 -3.139137,3.308779 -6.103996,6.735259 -9.056438,9.688849 0,0 -2e-6,2e-6 -2e-6,2e-6 -1.870796,1.875402 -3.568812,3.415853 -5.00078,4.812275 -1.378293,1.337417 -2.605091,2.616291 -3.7029046,3.709342 0,0 -9e-7,10e-7 -9e-7,10e-7 -0.7125783,0.716116 -1.9901391,1.91651 -2.3804939,2.284883 -0.6259176,0.614976 -1.1078992,1.135356 -1.7762571,1.45737 -0.6421437,0.298367 -1.0931608,0.1686 -1.3095023,-0.08127 z"
       id="path1194" />
    <path
       style="fill:#4d4d4d;stroke:none;stroke-width:0.211481px;stroke-linecap:butt;stroke-linejoin:miter;stroke-opacity:1"
       d="M 1.2387483,1.7759268 C 1.4536691,1.3413236 2.3464808,1.2705167 3.7911854,1.4766672 c 0,0 1e-6,10e-8 1e-6,10e-8 1.2400338,0.1768669 3.2486184,0.6182853 5.4368933,1.3567948 1.3507523,0.4561132 2.8662943,1.0590326 4.4569813,1.8438114 1.043925,0.5164729 2.053761,1.0724009 3.104154,1.6718136 3.040927,1.7307455 6.60079,3.9397289 10.098941,6.6204469 2.318522,1.779649 4.62017,3.779163 6.850744,6.00383 0.362156,0.361197 0.718688,0.724589 1.069588,1.08997 2.625701,2.736851 4.921563,5.561868 6.908025,8.262246 2.236446,3.023691 4.063884,5.899033 5.474199,8.866892 1.042453,2.215455 1.800237,4.40198 2.339333,6.100612 1.013246,2.945039 1.312288,5.22785 0.897572,7.017743 0,0 0,10e-7 0,10e-7 -0.09832,0.402353 -0.228836,0.735922 -0.372028,0.996141 -0.296292,0.537722 -0.633159,0.742723 -0.902083,0.696415 -0.27643,-0.0476 -0.492989,-0.345694 -0.732617,-0.789117 -0.110997,-0.205728 -0.244842,-0.476438 -0.381448,-0.753201 0,0 0,-1e-6 0,-1e-6 C 47.500218,49.322728 46.478286,47.864699 44.974333,45.469534 43.950337,43.919247 42.872318,42.143331 41.62856,40.37665 39.974479,38.004855 38.150195,35.817905 35.775987,33.057348 33.702126,30.659268 31.43711,28.105103 29.037242,25.653084 28.715356,25.323834 28.389843,24.995011 28.060641,24.666678 26.032169,22.64356 23.995977,20.771006 21.973798,19.031852 19.05278,16.515274 15.645304,13.872471 13.083915,11.831713 12.122973,11.067916 11.371148,10.458431 10.530805,9.8120943 9.3177008,8.8765851 8.0882714,8.0072415 7.0209851,7.2604343 5.0797989,5.9016469 3.738675,4.9895275 2.6124105,3.9727993 c 0,0 -8e-7,-7e-7 -8e-7,-7e-7 C 1.5062112,2.974308 1.0238275,2.21053 1.2387483,1.7759268 Z"
       id="path1210" />
  </g>
</svg>
